<svg xmlns="http://www.w3.org/2000/svg" width="114.113" height="114.112" viewBox="0 0 114.113 114.112">
  <path id="Icon_awesome-chevron-circle-left" data-name="Icon awesome-chevron-circle-left" d="M57.619,114.675A57.056,57.056,0,1,0,.563,57.619,57.046,57.046,0,0,0,57.619,114.675Zm26.2-53.145L52.649,92.7a5.5,5.5,0,0,1-7.8,0l-3.911-3.911a5.5,5.5,0,0,1,0-7.8L64.314,57.619,40.939,34.244a5.5,5.5,0,0,1,0-7.8l3.911-3.911a5.5,5.5,0,0,1,7.8,0L83.823,53.708A5.527,5.527,0,0,1,83.823,61.53Z" transform="translate(-0.563 -0.563)" fill="#fff"/>
</svg>
