<svg xmlns="http://www.w3.org/2000/svg" width="132.062" height="132.062" viewBox="0 0 132.062 132.062">
  <path id="Icon_awesome-plus" data-name="Icon awesome-plus" d="M122.629,54.131H80.18V11.683A9.434,9.434,0,0,0,70.747,2.25H61.314a9.434,9.434,0,0,0-9.433,9.433V54.131H9.433A9.434,9.434,0,0,0,0,63.564V73A9.434,9.434,0,0,0,9.433,82.43H51.881v42.448a9.434,9.434,0,0,0,9.433,9.433h9.433a9.434,9.434,0,0,0,9.433-9.433V82.43h42.448A9.434,9.434,0,0,0,132.062,73V63.564A9.434,9.434,0,0,0,122.629,54.131Z" transform="translate(0 -2.25)" fill="#fff"/>
</svg>
