<svg xmlns="http://www.w3.org/2000/svg" xmlns:xlink="http://www.w3.org/1999/xlink" width="404" height="195.741" viewBox="0 0 404 195.741">
  <defs>
    <filter id="MAPEAMENTO_DA_COMUNIDADE_FREIRIANA_INTERNACIONAL" x="10" y="49.741" width="385" height="101" filterUnits="userSpaceOnUse">
      <feOffset dy="3" input="SourceAlpha"/>
      <feGaussianBlur stdDeviation="3" result="blur"/>
      <feFlood flood-opacity="0.161"/>
      <feComposite operator="in" in2="blur"/>
      <feComposite in="SourceGraphic"/>
    </filter>
    <filter id="Paulo_Freire" x="0" y="82.741" width="404" height="113" filterUnits="userSpaceOnUse">
      <feOffset dy="3" input="SourceAlpha"/>
      <feGaussianBlur stdDeviation="10" result="blur-2"/>
      <feFlood flood-opacity="0.329"/>
      <feComposite operator="in" in2="blur-2"/>
      <feComposite in="SourceGraphic"/>
    </filter>
    <filter id="Icon_metro-pin" x="177.622" y="0" width="49.426" height="64.303" filterUnits="userSpaceOnUse">
      <feOffset dy="3" input="SourceAlpha"/>
      <feGaussianBlur stdDeviation="3" result="blur-3"/>
      <feFlood flood-opacity="0.271"/>
      <feComposite operator="in" in2="blur-3"/>
      <feComposite in="SourceGraphic"/>
    </filter>
  </defs>
  <g id="Grupo_2271" data-name="Grupo 2271" transform="translate(-198 -853.259)">
    <g transform="matrix(1, 0, 0, 1, 198, 853.26)" filter="url(#MAPEAMENTO_DA_COMUNIDADE_FREIRIANA_INTERNACIONAL)">
      <text id="MAPEAMENTO_DA_COMUNIDADE_FREIRIANA_INTERNACIONAL-2" data-name="MAPEAMENTO DA COMUNIDADE FREIRIANA INTERNACIONAL" transform="translate(19 55.74)" font-size="20" font-family="SegoeUI-Bold, Segoe UI" font-weight="700"><tspan x="24.105" y="22">MAPEAMENTO DA COMUNIDADE </tspan><tspan x="48.266" y="47">FREIRIANA INTERNACIONAL</tspan></text>
    </g>
    <g transform="matrix(1, 0, 0, 1, 198, 853.26)" filter="url(#Paulo_Freire)">
      <text id="Paulo_Freire-2" data-name="Paulo Freire" transform="translate(30 109.74)" fill="#ff0606" font-size="42" font-family="RageItalic, Rage"><tspan x="75.911" y="36">Paulo Freire</tspan></text>
    </g>
    <g transform="matrix(1, 0, 0, 1, 198, 853.26)" filter="url(#Icon_metro-pin)">
      <path id="Icon_metro-pin-2" data-name="Icon metro-pin" d="M31.963,32.821,16.509,23.9a3.965,3.965,0,1,0-3.966,6.866L28,39.688a3.965,3.965,0,0,0,3.968-6.867ZM19.217,23.173l12.02,6.94,4.089-11.377-8.3-4.79ZM10.356,52.4l11.5-13.967L16.7,35.458ZM40.293,12.444,29.992,6.5a2.974,2.974,0,1,0-2.974,5.151L37.32,17.6a2.974,2.974,0,1,0,2.972-5.151Z" transform="translate(176.27 -0.1)" fill="#d81515"/>
    </g>
  </g>
</svg>
