<svg xmlns="http://www.w3.org/2000/svg" width="95" height="108.571" viewBox="0 0 95 108.571">
  <path id="Icon_awesome-book" data-name="Icon awesome-book" d="M95,76.339V5.089A5.077,5.077,0,0,0,89.911,0H20.357A20.362,20.362,0,0,0,0,20.357V88.214a20.362,20.362,0,0,0,20.357,20.357H89.911A5.077,5.077,0,0,0,95,103.482v-3.393a5.129,5.129,0,0,0-1.887-3.965c-.891-3.266-.891-12.575,0-15.84A5.054,5.054,0,0,0,95,76.339ZM27.143,28.415a1.276,1.276,0,0,1,1.272-1.272H73.371a1.276,1.276,0,0,1,1.272,1.272v4.241a1.276,1.276,0,0,1-1.272,1.272H28.415a1.276,1.276,0,0,1-1.272-1.272Zm0,13.571a1.276,1.276,0,0,1,1.272-1.272H73.371a1.276,1.276,0,0,1,1.272,1.272v4.241A1.276,1.276,0,0,1,73.371,47.5H28.415a1.276,1.276,0,0,1-1.272-1.272ZM80.877,95H20.357a6.786,6.786,0,1,1,0-13.571h60.52A76.34,76.34,0,0,0,80.877,95Z" fill="#ea4335"/>
</svg>
