<svg xmlns="http://www.w3.org/2000/svg" xmlns:xlink="http://www.w3.org/1999/xlink" width="373" height="314.741" viewBox="0 0 373 314.741">
  <defs>
    <filter id="MAPEAMENTO_DA_COMUNIDADE_FREIRIANA_INTERNACIONAL" x="2" y="83.741" width="370" height="158" filterUnits="userSpaceOnUse">
      <feOffset dy="3" input="SourceAlpha"/>
      <feGaussianBlur stdDeviation="3" result="blur"/>
      <feFlood flood-opacity="0.161"/>
      <feComposite operator="in" in2="blur"/>
      <feComposite in="SourceGraphic"/>
    </filter>
    <filter id="Paulo_Freire" x="0" y="193.741" width="373" height="121" filterUnits="userSpaceOnUse">
      <feOffset dy="3" input="SourceAlpha"/>
      <feGaussianBlur stdDeviation="10" result="blur-2"/>
      <feFlood flood-opacity="0.541"/>
      <feComposite operator="in" in2="blur-2"/>
      <feComposite in="SourceGraphic"/>
    </filter>
    <filter id="Icon_metro-pin" x="151.389" y="0" width="70.928" height="95.984" filterUnits="userSpaceOnUse">
      <feOffset dy="3" input="SourceAlpha"/>
      <feGaussianBlur stdDeviation="3" result="blur-3"/>
      <feFlood flood-opacity="0.271"/>
      <feComposite operator="in" in2="blur-3"/>
      <feComposite in="SourceGraphic"/>
    </filter>
  </defs>
  <g id="Grupo_44" data-name="Grupo 44" transform="translate(-206 -853.259)">
    <g transform="matrix(1, 0, 0, 1, 206, 853.26)" filter="url(#MAPEAMENTO_DA_COMUNIDADE_FREIRIANA_INTERNACIONAL)">
      <text id="MAPEAMENTO_DA_COMUNIDADE_FREIRIANA_INTERNACIONAL-2" data-name="MAPEAMENTO DA COMUNIDADE FREIRIANA INTERNACIONAL" transform="translate(11 89.74)" font-size="30" font-family="SegoeUI-Bold, Segoe UI" font-weight="700"><tspan x="43.827" y="32">MAPEAMENTO DA </tspan><tspan x="73.219" y="62">COMUNIDADE </tspan><tspan x="98.18" y="92">FREIRIANA </tspan><tspan x="55.106" y="122">INTERNACIONAL</tspan></text>
    </g>
    <g transform="matrix(1, 0, 0, 1, 206, 853.26)" filter="url(#Paulo_Freire)">
      <text id="Paulo_Freire-2" data-name="Paulo Freire" transform="translate(30 220.74)" fill="#ff0606" font-size="42" font-family="RageItalic, Rage"><tspan x="60.411" y="36">Paulo Freire</tspan></text>
    </g>
    <g transform="matrix(1, 0, 0, 1, 206, 853.26)" filter="url(#Icon_metro-pin)">
      <path id="Icon_metro-pin-2" data-name="Icon metro-pin" d="M46.747,51.107,20.719,36.079A6.677,6.677,0,1,0,14.04,47.644L40.064,62.671a6.678,6.678,0,0,0,6.682-11.565ZM25.28,34.857,45.524,46.545,52.41,27.383,38.431,19.315,25.28,34.857ZM10.356,84.081,29.722,60.557l-8.676-5.009Zm50.42-67.294L43.427,6.768a5.009,5.009,0,1,0-5.009,8.676L55.77,25.463a5.008,5.008,0,1,0,5.006-8.676Z" transform="translate(150.03 -0.1)" fill="#d81515"/>
    </g>
  </g>
</svg>
