<svg xmlns="http://www.w3.org/2000/svg" width="93.95" height="93.971" viewBox="0 0 93.95 93.971">
  <path id="Icon_awesome-wpforms" data-name="Icon awesome-wpforms" d="M93.95,11.309V87.161a8.956,8.956,0,0,1-9.059,9.059H9.059A8.987,8.987,0,0,1,0,87.14V11.309A8.956,8.956,0,0,1,9.059,2.25H84.911A8.952,8.952,0,0,1,93.95,11.309ZM86.128,87.14V11.309a1.245,1.245,0,0,0-1.216-1.216h-1.95L59.83,25.737,46.975,15.273,34.141,25.737,11.01,10.072H9.059a1.245,1.245,0,0,0-1.216,1.216V87.141a1.245,1.245,0,0,0,1.216,1.216H84.911a1.217,1.217,0,0,0,1.216-1.216ZM31.5,34.545V42.3H16.085V34.545Zm0,15.6V57.97H16.085V50.148Zm2.328-30.89,11.324-9.164H20.3l13.526,9.164ZM77.865,34.545V42.3h-41.1V34.545Zm0,15.6V57.97h-41.1V50.148ZM60.124,19.257,73.65,10.093H48.82l11.3,9.164ZM77.865,65.792v7.822H57.02V65.792H77.865Z" transform="translate(0 -2.25)" fill="#fff"/>
</svg>
