<svg xmlns="http://www.w3.org/2000/svg" width="96.25" height="77" viewBox="0 0 96.25 77">
  <path id="Icon_awesome-sitemap" data-name="Icon awesome-sitemap" d="M19.25,52.938H4.813A4.813,4.813,0,0,0,0,57.75V72.188A4.813,4.813,0,0,0,4.813,77H19.25a4.813,4.813,0,0,0,4.813-4.812V57.75A4.813,4.813,0,0,0,19.25,52.938ZM15.641,40.906H44.516v7.219h7.219V40.906H80.609v7.219h7.219V39.464a5.784,5.784,0,0,0-5.777-5.777H51.734V24.063H57.75a4.813,4.813,0,0,0,4.812-4.812V4.813A4.813,4.813,0,0,0,57.75,0H38.5a4.813,4.813,0,0,0-4.812,4.813V19.25A4.813,4.813,0,0,0,38.5,24.063h6.016v9.625H14.2a5.783,5.783,0,0,0-5.777,5.777v8.661h7.219Zm39.7,12.031H40.906a4.813,4.813,0,0,0-4.812,4.813V72.188A4.813,4.813,0,0,0,40.906,77H55.344a4.813,4.813,0,0,0,4.813-4.812V57.75A4.813,4.813,0,0,0,55.344,52.938Zm36.094,0H77a4.813,4.813,0,0,0-4.812,4.813V72.188A4.813,4.813,0,0,0,77,77H91.438a4.813,4.813,0,0,0,4.813-4.812V57.75A4.813,4.813,0,0,0,91.438,52.938Z" fill="#fff"/>
</svg>
