<svg xmlns="http://www.w3.org/2000/svg" width="94.25" height="83.778" viewBox="0 0 94.25 83.778">
  <path id="Icon_awesome-map-marked-alt" data-name="Icon awesome-map-marked-alt" d="M47.125,0A20.617,20.617,0,0,0,26.508,20.617c0,9.206,13.475,25.984,18.637,32.074a2.581,2.581,0,0,0,3.96,0c5.162-6.09,18.637-22.869,18.637-32.074A20.617,20.617,0,0,0,47.125,0Zm0,27.49A6.872,6.872,0,1,1,54,20.617,6.872,6.872,0,0,1,47.125,27.49ZM3.292,35.336A5.237,5.237,0,0,0,0,40.2V81.156a2.618,2.618,0,0,0,3.59,2.432L26.181,73.306V35.167a49.553,49.553,0,0,1-3.477-7.6ZM47.125,58.852a7.818,7.818,0,0,1-5.974-2.775c-3.217-3.8-6.638-8.119-9.734-12.554V73.3L62.833,83.776V43.525c-3.1,4.433-6.516,8.757-9.734,12.554A7.822,7.822,0,0,1,47.125,58.852ZM90.66,26.37,68.069,36.653V83.778l22.888-9.155a5.235,5.235,0,0,0,3.292-4.861V28.8A2.618,2.618,0,0,0,90.66,26.37Z" fill="#fff"/>
</svg>
