<svg xmlns="http://www.w3.org/2000/svg" width="109.977" height="121.279" viewBox="0 0 109.977 121.279">
  <path id="Icon_simple-email" data-name="Icon simple-email" d="M111.572,55.975a62.546,62.546,0,0,1-2.016,13.566,39.257,39.257,0,0,1-5.275,11.913,27.833,27.833,0,0,1-8.943,8.465A25.238,25.238,0,0,1,82.281,93.14a18.929,18.929,0,0,1-9.443-2.311,16.171,16.171,0,0,1-6.381-6.54,20.226,20.226,0,0,1-17.112,8.594,17.4,17.4,0,0,1-14.937-8.033,26.3,26.3,0,0,1-3.713-9.306A40.136,40.136,0,0,1,30.21,63.4a56.4,56.4,0,0,1,3.7-14.869,40.416,40.416,0,0,1,6.836-11.39,28.918,28.918,0,0,1,9.4-7.26,26.222,26.222,0,0,1,11.428-2.539,35.536,35.536,0,0,1,6.836.584,27.98,27.98,0,0,1,5.3,1.591,28.687,28.687,0,0,1,4.4,2.319c1.341.864,2.69,1.758,4.032,2.668L78.818,72.7a12.7,12.7,0,0,0,.1,4.471,6.256,6.256,0,0,0,1.364,2.759,4.91,4.91,0,0,0,2.213,1.44,8.215,8.215,0,0,0,7.776-1.531,16.572,16.572,0,0,0,4.168-5.3,34.166,34.166,0,0,0,2.8-7.973,54.7,54.7,0,0,0,1.228-9.928,63.447,63.447,0,0,0-1.561-18.552,36.877,36.877,0,0,0-6.866-14.354,31.883,31.883,0,0,0-12.307-9.246A44.67,44.67,0,0,0,59.8,11.2,39.591,39.591,0,0,0,42.07,15.066,40.689,40.689,0,0,0,28.6,25.782,51.428,51.428,0,0,0,19.774,41.9,72.642,72.642,0,0,0,16.06,61.985a66.783,66.783,0,0,0,1.895,20.492,37.011,37.011,0,0,0,7.488,14.687,31.246,31.246,0,0,0,12.686,8.821,48.663,48.663,0,0,0,17.506,2.925,59.962,59.962,0,0,0,11.489-1.235c1.895-.379,3.691-.834,5.4-1.334a40.669,40.669,0,0,0,4.653-1.667l2.4,10.807a26.667,26.667,0,0,1-5.206,2.577,50.118,50.118,0,0,1-6.154,1.781,60.045,60.045,0,0,1-12.853,1.44A67.4,67.4,0,0,1,31.937,117.5a43.128,43.128,0,0,1-17.082-11.231A47.169,47.169,0,0,1,4.6,87.729Q1.226,76.634,1.737,61.985A78.513,78.513,0,0,1,6.663,37.279,61.144,61.144,0,0,1,18.531,17.65,54.08,54.08,0,0,1,36.636,4.7,56.685,56.685,0,0,1,60.084,0,59.18,59.18,0,0,1,82.8,4.07,44.19,44.19,0,0,1,99.2,15.513a46.963,46.963,0,0,1,9.731,17.681A67.6,67.6,0,0,1,111.572,55.975ZM46.488,63.4q-.716,8.446,1.334,12.785a6.855,6.855,0,0,0,6.593,4.32,7.283,7.283,0,0,0,2.258-.417,8.054,8.054,0,0,0,2.6-1.561,13.873,13.873,0,0,0,2.637-3.183,24.427,24.427,0,0,0,2.425-5.381l2.592-29.677a15.485,15.485,0,0,0-4.032-.53A13.94,13.94,0,0,0,56.189,41.3a13.278,13.278,0,0,0-4.752,4.517,26.525,26.525,0,0,0-3.153,7.427A63,63,0,0,0,46.5,63.394Z" transform="translate(-1.67)"/>
</svg>
