<svg xmlns="http://www.w3.org/2000/svg" width="120.638" height="65.803" viewBox="0 0 120.638 65.803">
  <path id="Icon_material-timeline" data-name="Icon material-timeline" d="M122.138,19.967a11,11,0,0,1-10.967,10.967,9.32,9.32,0,0,1-2.8-.384L88.853,50.017a9.687,9.687,0,0,1,.384,2.851,10.967,10.967,0,0,1-21.934,0,9.687,9.687,0,0,1,.384-2.851L53.7,36.034a10.783,10.783,0,0,1-5.7,0l-24.95,25a9.32,9.32,0,0,1,.384,2.8A10.967,10.967,0,1,1,12.467,52.868a9.32,9.32,0,0,1,2.8.384l25-24.95a9.686,9.686,0,0,1-.384-2.851,10.967,10.967,0,0,1,21.934,0,9.686,9.686,0,0,1-.384,2.851L75.418,42.285a10.783,10.783,0,0,1,5.7,0l19.467-19.521a9.32,9.32,0,0,1-.384-2.8,10.967,10.967,0,0,1,21.934,0Z" transform="translate(-1.5 -9)" fill="#ea4335"/>
</svg>
