<svg xmlns="http://www.w3.org/2000/svg" width="109.841" height="109.842" viewBox="0 0 109.841 109.842">
  <path id="Icon_awesome-phone-alt" data-name="Icon awesome-phone-alt" d="M106.708,77.618,82.68,67.321a5.149,5.149,0,0,0-6.007,1.48l-10.641,13A79.52,79.52,0,0,1,28.018,43.788l13-10.641A5.136,5.136,0,0,0,42.5,27.14L32.2,3.112A5.183,5.183,0,0,0,26.3.13L3.99,5.279A5.149,5.149,0,0,0,0,10.3a99.534,99.534,0,0,0,99.545,99.545,5.149,5.149,0,0,0,5.02-3.99l5.149-22.312a5.211,5.211,0,0,0-3.006-5.921Z"/>
</svg>
