<svg xmlns="http://www.w3.org/2000/svg" width="130.696" height="130.696" viewBox="0 0 130.696 130.696">
  <path id="Icon_awesome-phone-alt" data-name="Icon awesome-phone-alt" d="M126.968,92.355,98.378,80.1a6.126,6.126,0,0,0-7.148,1.761L78.569,97.333A94.618,94.618,0,0,1,33.338,52.1L48.807,39.44a6.111,6.111,0,0,0,1.761-7.148L38.316,3.7A6.167,6.167,0,0,0,31.3.155L4.748,6.281A6.126,6.126,0,0,0,0,12.252,118.432,118.432,0,0,0,118.445,130.7a6.126,6.126,0,0,0,5.973-4.748L130.544,99.4a6.2,6.2,0,0,0-3.576-7.045Z" fill="#ea4335"/>
</svg>
