<svg xmlns="http://www.w3.org/2000/svg" width="111.969" height="89.575" viewBox="0 0 111.969 89.575">
  <path id="Icon_awesome-photo-video" data-name="Icon awesome-photo-video" d="M106.371,0H27.992a5.6,5.6,0,0,0-5.6,5.6v16.8H50.386V11.2H83.977V67.182h22.394a5.6,5.6,0,0,0,5.6-5.6V5.6A5.6,5.6,0,0,0,106.371,0ZM40.589,18.02a1.575,1.575,0,0,1-1.575,1.575H33.766a1.575,1.575,0,0,1-1.575-1.575V12.772A1.575,1.575,0,0,1,33.766,11.2h5.249a1.575,1.575,0,0,1,1.575,1.575Zm61.583,36.39a1.575,1.575,0,0,1-1.575,1.575H95.349a1.575,1.575,0,0,1-1.575-1.575V49.162a1.575,1.575,0,0,1,1.575-1.575H100.6a1.575,1.575,0,0,1,1.575,1.575Zm0-18.2A1.575,1.575,0,0,1,100.6,37.79H95.349a1.575,1.575,0,0,1-1.575-1.575V30.967a1.575,1.575,0,0,1,1.575-1.575H100.6a1.575,1.575,0,0,1,1.575,1.575Zm0-18.2a1.575,1.575,0,0,1-1.575,1.575H95.349a1.575,1.575,0,0,1-1.575-1.575V12.772A1.575,1.575,0,0,1,95.349,11.2H100.6a1.575,1.575,0,0,1,1.575,1.575ZM72.78,27.992H5.6a5.6,5.6,0,0,0-5.6,5.6V83.977a5.6,5.6,0,0,0,5.6,5.6H72.78a5.6,5.6,0,0,0,5.6-5.6V33.591A5.6,5.6,0,0,0,72.78,27.992ZM16.8,39.189a5.6,5.6,0,1,1-5.6,5.6A5.6,5.6,0,0,1,16.8,39.189ZM67.182,78.379H11.2v-5.6l11.2-11.2,5.6,5.6L50.386,44.788l16.8,16.8Z" fill="#ea4335"/>
</svg>
